<svg xmlns="http://www.w3.org/2000/svg" width="512" height="512" viewBox="0 0 498.881 498.881"><path d="M231.41 148.209h47.265v53.138h31.191V22.369C309.866 10.016 299.859 0 287.506 0H66.765C54.412 0 44.39 10.016 44.39 22.369v454.145c0 12.354 10.021 22.367 22.375 22.367h79.417V353.476h61.519V231.779c0-13.219 9.727-24.193 23.702-28.478V148.21h.007zm0-103.467h47.265v67.111H231.41V44.742zM123.653 422.076H76.391v-67.111h47.263v67.111zm0-98.249H76.391v-67.116h47.263v67.116zm0-108.507H76.391v-67.111h47.263v67.111zm0-103.462H76.391V44.742h47.263v67.116zm78.826 211.969h-47.254v-67.116h47.254v67.116zm0-108.507h-47.254v-67.111h47.254v67.111zm0-103.462h-47.254V44.742h47.254v67.116zm233.062 107.384H248.58c-10.465 0-18.95 5.612-18.95 12.537v254.559c0 6.934 8.485 12.543 18.95 12.543h67.268v-81.504h54.013v81.504h65.681c10.462 0 18.949-5.609 18.949-12.543V231.779c-.001-6.925-8.488-12.537-18.95-12.537zM296.756 455.826h-40.027v-37.615h40.027v37.615zm0-55.07h-40.027V363.14h40.027v37.616zm0-60.817h-40.027v-37.615h40.027v37.615zm0-58.001h-40.027v-37.619h40.027v37.619zm66.78 118.818h-40.028V363.14h40.028v37.616zm0-60.817h-40.028v-37.615h40.028v37.615zm0-58.001h-40.028v-37.619h40.028v37.619zm64.533 174.728h-40.027V419.05h40.027v37.616zm0-55.91h-40.027V363.14h40.027v37.616zm0-60.817h-40.027v-37.615h40.027v37.615zm0-58.001h-40.027v-37.619h40.027v37.619z" fill="#FFF"/></svg>