<svg xmlns="http://www.w3.org/2000/svg" viewBox="0 0 177 177" width="512" height="512"><path d="M168.965 152.515H8.036c-4.431 0-8.036-3.604-8.036-8.035V32.521c0-4.431 3.605-8.035 8.036-8.035h160.929c4.431 0 8.035 3.604 8.035 8.035V144.48c0 4.43-3.604 8.035-8.035 8.035zM8.036 29.485A3.04 3.04 0 0 0 5 32.521V144.48a3.039 3.039 0 0 0 3.036 3.035h160.929A3.038 3.038 0 0 0 172 144.48V32.521a3.038 3.038 0 0 0-3.035-3.035H8.036zm150.14 100.765h-43.667a2.5 2.5 0 1 1 0-5h43.667a2.5 2.5 0 1 1 0 5zm-100.101 0c-23.021 0-41.75-18.729-41.75-41.75s18.729-41.75 41.75-41.75 41.75 18.729 41.75 41.75-18.728 41.75-41.75 41.75zm0-78.5c-20.264 0-36.75 16.486-36.75 36.75s16.486 36.75 36.75 36.75 36.75-16.486 36.75-36.75-16.486-36.75-36.75-36.75zm11.021 68.132h-.054c-4.231-.018-8.168-1.997-11.084-5.574-4.038-4.951-3.639-13.141-3.217-16.778a9.61 9.61 0 0 1-2.46-1.349c-.858.122-3.211.648-5.22 2.871-1.267 1.401-1.36 2.588-1.489 4.23-.151 1.909-.357 4.522-3.073 6.679-2.127 1.689-4.788 2.327-7.302 1.756-3.465-.79-6.429-3.678-8.81-8.586-4.322-8.908-3.372-14.817-1.813-18.207 1.768-3.845 5.199-6.608 9.663-7.783 6.612-1.738 14.504 2.687 17.205 4.39a9.7 9.7 0 0 1 1.813-1.361l.006-.01c.042-.091 1.295-2.806.048-6.266-.641-1.776-1.644-2.417-3.032-3.305-1.613-1.031-3.823-2.443-4.448-5.854-.489-2.67.197-5.32 1.886-7.269 2.327-2.686 6.27-3.946 11.723-3.734 9.893.378 14.66 3.997 16.918 6.966 2.561 3.368 3.385 7.697 2.32 12.188-1.479 6.243-8.274 10.923-11.399 12.785a9.61 9.61 0 0 1 .353 4.004l.019.037c.046.089 1.439 2.735 4.943 3.85 1.803.573 2.92.167 4.468-.396 1.8-.653 4.262-1.548 7.353.032 2.417 1.236 4.102 3.394 4.621 5.919.717 3.48-.686 7.375-4.168 11.574-6.291 7.588-12.039 9.191-15.77 9.191zm-9.371-21.899c-.399 3.444-.525 9.936 2.108 13.165 1.132 1.388 3.576 3.719 7.229 3.734h.034c3.795 0 7.915-2.551 11.918-7.38 2.396-2.89 3.505-5.509 3.121-7.375-.291-1.412-1.379-2.157-2.001-2.475-1.098-.561-1.721-.381-3.371.217-1.801.653-4.267 1.547-7.688.459a14 14 0 0 1-5.743-3.512 9.619 9.619 0 0 1-5.607 3.167zM37.452 81.745a7.63 7.63 0 0 0-1.943.233c-1.731.456-4.865 1.715-6.392 5.036-1.589 3.456-.978 8.275 1.769 13.935 1.639 3.377 3.564 5.471 5.422 5.894 1.404.323 2.534-.361 3.082-.796.963-.765 1.06-1.409 1.198-3.158.15-1.91.357-4.525 2.765-7.189a14.001 14.001 0 0 1 5.709-3.823 9.556 9.556 0 0 1-.611-3.376c0-.937.135-1.843.386-2.7-2.38-1.503-7.337-4.056-11.385-4.056zm20.623 2.13c-2.55 0-4.625 2.075-4.625 4.625s2.075 4.625 4.625 4.625S62.7 91.05 62.7 88.5s-2.075-4.625-4.625-4.625zm.645-4.979a9.587 9.587 0 0 1 5.889 2.542c2.97-1.768 8.237-5.633 9.202-9.704.413-1.743.775-5.101-1.436-8.01-2.302-3.028-6.842-4.755-13.129-4.996-3.756-.143-6.505.57-7.752 2.011-.943 1.09-.873 2.406-.747 3.094.222 1.209.744 1.598 2.223 2.542 1.614 1.032 3.825 2.445 5.043 5.822.926 2.571.953 4.91.707 6.699zm99.456 35.654h-43.667a2.5 2.5 0 1 1 0-5h43.667a2.5 2.5 0 1 1 0 5zm0-15.7h-43.667a2.5 2.5 0 1 1 0-5h43.667a2.5 2.5 0 1 1 0 5zm0-15.7h-43.667a2.5 2.5 0 1 1 0-5h43.667a2.5 2.5 0 1 1 0 5zm0-15.7h-43.667a2.5 2.5 0 1 1 0-5h43.667a2.5 2.5 0 1 1 0 5zm0-15.7h-43.667a2.5 2.5 0 1 1 0-5h43.667a2.5 2.5 0 1 1 0 5z" fill="#FFF"/></svg>