<svg xmlns="http://www.w3.org/2000/svg" viewBox="0 0 283.764 283.764" width="512" height="512"><path d="M0 141.881c0 70.13 60.237 127.186 134.277 127.186V241.54c-58.862 0-106.75-44.706-106.75-99.658 0-54.951 47.888-99.656 106.75-99.656V14.697C60.237 14.697 0 71.752 0 141.881zm283.764-99.656V14.697c-74.042 0-134.279 57.055-134.279 127.184 0 70.13 60.237 127.186 134.279 127.186V241.54c-53.861 0-98.526-37.434-105.729-85.895h104.108v-27.527H178.035c7.203-48.461 51.868-85.893 105.729-85.893z" fill="#FFF"/></svg>