<?xml version="1.0" encoding="iso-8859-1"?>
<!-- Generator: Adobe Illustrator 18.0.0, SVG Export Plug-In . SVG Version: 6.00 Build 0)  -->
<!DOCTYPE svg PUBLIC "-//W3C//DTD SVG 1.1//EN" "http://www.w3.org/Graphics/SVG/1.1/DTD/svg11.dtd">
<svg xmlns="http://www.w3.org/2000/svg" xmlns:xlink="http://www.w3.org/1999/xlink" version="1.1" id="Capa_1" x="0px" y="0px" viewBox="0 0 283.764 283.764" style="enable-background:new 0 0 283.764 283.764;" xml:space="preserve" width="512px" height="512px">
<g>
	<path d="M0,141.881c0,70.13,60.237,127.186,134.277,127.186v-27.527c-58.862,0-106.75-44.706-106.75-99.658   c0-54.951,47.888-99.656,106.75-99.656V14.697C60.237,14.697,0,71.752,0,141.881z" fill="#FFFFFF"/>
	<path d="M283.764,42.225V14.697c-74.042,0-134.279,57.055-134.279,127.184c0,70.13,60.237,127.186,134.279,127.186v-27.527   c-53.861,0-98.526-37.434-105.729-85.895h104.108v-27.527H178.035C185.238,79.657,229.903,42.225,283.764,42.225z" fill="#FFFFFF"/>
</g>
<g>
</g>
<g>
</g>
<g>
</g>
<g>
</g>
<g>
</g>
<g>
</g>
<g>
</g>
<g>
</g>
<g>
</g>
<g>
</g>
<g>
</g>
<g>
</g>
<g>
</g>
<g>
</g>
<g>
</g>
</svg>
