<svg xmlns="http://www.w3.org/2000/svg" viewBox="0 0 512.001 512.001" width="512" height="512"><circle cx="501.978" cy="109.276" r="10.023" fill="#FFF"/><path d="M305.548 410.679h-38.796c-5.535 0-10.023 4.488-10.023 10.023s4.487 10.023 10.023 10.023h38.796c5.973 0 10.833 4.861 10.833 10.834s-4.86 10.833-10.833 10.833H201.115c-15.691 0-30.446-6.919-40.482-18.981l-24.973-30.019c-13.401-16.108-32.901-25.543-53.767-26.148v-59.012h36.788c18.147 0 35.331 6.941 48.387 19.544l53.902 52.03c3.801 3.668 3.978 9.811.395 13.694-3.651 3.956-9.851 4.214-13.819.577l-42.319-38.793c-4.081-3.74-10.42-3.465-14.161.615-3.74 4.079-3.465 10.419.615 14.16l42.32 38.794c5.712 5.236 12.94 7.821 20.15 7.821 8.049 0 16.076-3.223 21.943-9.579 10.915-11.825 10.375-30.537-1.203-41.713l-53.901-52.029c-16.812-16.229-38.941-25.167-62.308-25.167H80.087c-3.681-9.095-12.601-15.532-23.001-15.532H10.023C4.487 282.655 0 287.143 0 292.677v73.11c0 5.534 4.487 10.023 10.023 10.023 5.535 0 10.023-4.488 10.023-10.023V302.7h37.041a4.767 4.767 0 0 1 4.762 4.762v80.135a4.767 4.767 0 0 1-4.762 4.762H46.703c-5.535 0-10.023 4.488-10.023 10.023s4.487 10.023 10.023 10.023h10.383c10.262 0 19.089-6.264 22.857-15.169 15.625.052 30.308 6.96 40.306 18.977l24.973 30.019c13.856 16.654 34.228 26.206 55.892 26.206h104.434c17.026 0 30.878-13.852 30.878-30.879 0-17.029-13.852-30.88-30.878-30.88zm62.832-69.428c-4.114-3.704-10.452-3.37-14.155.745a17.12 17.12 0 0 0-.123.138c-3.66 4.138-3.268 10.441.859 14.113a9.97 9.97 0 0 0 6.649 2.528 10.038 10.038 0 0 0 7.496-3.35l-7.431-6.725 7.45 6.704c3.703-4.114 3.37-10.451-.745-14.153zm-20.942 21.802c-3.256-4.476-9.563-5.439-14.042-2.181-4.476 3.255-5.466 9.523-2.211 14a10.01 10.01 0 0 0 8.114 4.128 9.975 9.975 0 0 0 5.887-1.918l.081-.059c4.477-3.255 5.427-9.494 2.171-13.97zm-25.016 16.762c-2.265-5.019-8.159-7.261-13.189-5.044-5.017 2.162-7.388 7.959-5.296 13.026a10.024 10.024 0 0 0 9.268 6.203 9.999 9.999 0 0 0 4.213-.932c5.043-2.277 7.279-8.207 5.004-13.253z" fill="#FFF"/><path d="M294.401 390.984c-1.125-5.396-6.401-8.857-11.794-7.779-5.378 1.033-8.94 6.203-7.972 11.609.869 4.852 5.092 8.258 9.854 8.258a10.183 10.183 0 0 0 2.16-.232c5.416-1.133 8.881-6.439 7.752-11.856zm112.406-155.942l-9.842 1.891 9.839-1.909c-1.054-5.434-6.314-8.987-11.748-7.93-5.434 1.054-8.984 6.314-7.93 11.748l.048.24a10.061 10.061 0 0 0 9.818 8.003c.676 0 1.361-.069 2.048-.213 5.417-1.132 8.898-6.412 7.767-11.83zm-9.157 21.97c-5.517-.484-10.377 3.59-10.864 9.103-.004.049-.017.196-.02.246-.406 5.52 3.737 10.356 9.258 10.762.252.019.502.027.751.027 5.199 0 9.59-3.988 9.977-9.256l-9.982-.898 9.983.881c.487-5.513-3.589-10.378-9.103-10.865zm-13.535 58.529c-4.811-2.732-10.95-1.005-13.685 3.803-2.737 4.812-1.056 10.93 3.754 13.668a10.02 10.02 0 0 0 13.726-3.857c2.728-4.813 1.015-10.882-3.795-13.614zm9.872-28.572c-5.297-1.609-10.896 1.394-12.5 6.692-1.651 5.283 1.294 10.905 6.577 12.555a9.99 9.99 0 0 0 2.993.459c4.268 0 8.223-2.747 9.563-7.037l.055-.178c1.604-5.297-1.39-10.886-6.688-12.491zm-264.337-1.486c-1.225-5.363-6.548-8.734-11.93-7.555-5.405 1.193-8.821 6.541-7.628 11.947l.07.301c1.11 4.583 5.208 7.652 9.724 7.652.781 0 1.576-.092 2.369-.283 5.365-1.298 8.666-6.698 7.395-12.062zm2.223-95.497c-5.042-2.277-10.982-.036-13.259 5.009l-.118.27c-2.18 5.085.178 10.963 5.263 13.146a9.976 9.976 0 0 0 3.942.814c3.878 0 7.572-2.267 9.212-6.046 2.228-5.031-.017-10.924-5.04-13.193zm-11.054 28.061c-5.415-1.129-10.729 2.341-11.861 7.76l-.048.24c-1.054 5.434 2.492 10.715 7.926 11.769.647.125 1.293.186 1.928.186 4.699 0 8.887-3.308 9.815-8.095 1.132-5.418-2.342-10.729-7.76-11.86zm27.687-53.199c-4.486-3.223-10.747-2.192-13.983 2.285l8.088 5.918-8.105-5.895c-3.256 4.477-2.266 10.745 2.21 14.001a9.974 9.974 0 0 0 5.887 1.917c3.098 0 6.153-1.431 8.114-4.128l.108-.15c3.211-4.495 2.167-10.724-2.319-13.948zm21.748-20.964c-3.703-4.114-10.041-4.448-14.155-.746l-.083.074c-4.109 3.706-4.4 10.006-.696 14.118a9.97 9.97 0 0 0 7.437 3.296c2.408 0 4.827-.856 6.751-2.588 4.114-3.703 4.448-10.04.746-14.154zm25.709-15.793c-2.702-4.831-8.809-6.557-13.64-3.855a12.7 12.7 0 0 0-.198.113c-4.796 2.763-6.456 8.899-3.692 13.695a10.017 10.017 0 0 0 8.691 5.024 9.957 9.957 0 0 0 4.985-1.338c4.83-2.701 6.556-8.808 3.854-13.639zm28.425-10.195c-1.702-5.267-7.325-8.168-12.591-6.464l2.931 9.585-2.948-9.58c-5.289 1.628-8.259 7.236-6.631 12.527 1.326 4.309 5.291 7.078 9.576 7.078.976 0 1.969-.143 2.951-.446l.229-.072c5.267-1.702 8.185-7.36 6.483-12.628zm29.956-3.594c-.486-5.513-5.348-9.585-10.864-9.103l-.1.009c-5.513.486-9.539 5.346-9.053 10.86.46 5.214 4.879 9.138 10.021 9.138.296 0 .593-.013.894-.039 5.512-.486 9.588-5.351 9.102-10.865zM126.148 257.548c-.162-5.532-4.756-9.914-10.314-9.756-5.533.163-9.887 4.748-9.724 10.28l10.022-.13-10.022.147c.081 5.484 4.552 9.875 10.018 9.875l.15-.001c5.534-.081 9.955-4.634 9.874-10.169l-.004-.246zm140.166-12.317h-20.629c-8.401 0-15.236-6.835-15.236-15.237v-11.998c0-8.402 6.835-15.237 15.236-15.237h22.855c7.174 0 13.01 5.836 13.01 13.01 0 5.535 4.487 10.023 10.023 10.023s10.023-4.487 10.023-10.023c0-18.227-14.828-33.055-33.055-33.055h-2.519v-14.922c0-5.535-4.487-10.023-10.023-10.023-5.535 0-10.023 4.487-10.023 10.023v14.922h-.292c-19.453.001-35.28 15.829-35.28 35.283v11.998c0 19.455 15.828 35.282 35.281 35.282h12.841l.019-.001h7.768c8.402 0 15.237 6.835 15.237 15.237v11.998c0 8.402-6.835 15.237-15.237 15.237h-22.855c-7.174 0-13.009-5.836-13.009-13.01 0-5.534-4.487-10.023-10.023-10.023-5.535 0-10.023 4.488-10.023 10.023 0 18.228 14.828 33.055 33.054 33.055h2.519v14.921c0 5.534 4.487 10.023 10.023 10.023 5.535 0 10.023-4.488 10.023-10.023v-14.921h.292c19.455 0 35.282-15.828 35.282-35.282v-11.998c0-19.455-15.828-35.282-35.282-35.282z" fill="#FFF"/><path d="M501.977 131.944c-5.535 0-10.023 4.487-10.023 10.023v66.994h-37.041a4.767 4.767 0 0 1-4.762-4.762v-80.135a4.767 4.767 0 0 1 4.762-4.762h9.651c5.535 0 10.023-4.487 10.023-10.023 0-5.535-4.487-10.023-10.023-10.023h-9.651c-10.39 0-19.303 6.423-22.991 15.506-15.575-.091-30.203-6.99-40.172-18.973l-24.974-30.02c-13.855-16.654-34.226-26.206-55.892-26.206H206.451c-17.026 0-30.878 13.852-30.878 30.878s13.852 30.878 30.878 30.878h42.704c5.535 0 10.023-4.487 10.023-10.023 0-5.535-4.487-10.023-10.023-10.023h-42.704c-5.973 0-10.833-4.86-10.833-10.833s4.86-10.833 10.833-10.833h104.434c15.691 0 30.446 6.919 40.482 18.981l24.974 30.019c13.4 16.108 32.901 25.543 53.766 26.148v59.012h-36.788c-18.147 0-35.331-6.941-48.387-19.544l-53.902-52.03c-3.801-3.669-3.978-9.812-.395-13.695 3.651-3.956 9.851-4.214 13.819-.577l42.319 38.793c4.08 3.74 10.42 3.466 14.161-.615 3.74-4.08 3.465-10.42-.615-14.161L318 93.147c-12.089-11.081-30.972-10.293-42.094 1.757-10.915 11.824-10.375 30.537 1.203 41.713l53.901 52.03c16.812 16.228 38.941 25.167 62.308 25.167h38.728c3.763 8.917 12.595 15.191 22.866 15.191h47.064c5.535 0 10.023-4.487 10.023-10.023v-77.016c.001-5.535-4.486-10.022-10.022-10.022z" fill="#FFF"/><circle cx="10.023" cy="402.385" r="10.023" fill="#FFF"/></svg>