<svg xmlns="http://www.w3.org/2000/svg" viewBox="0 0 489.444 489.444" width="512" height="512"><g fill="#FFF"><path d="M452.768 179.578L293.265 20.074c-26.768-26.766-70.32-26.766-97.086 0L36.676 179.578c-12.909 12.909-16.589 31.407-9.603 48.274 5.221 12.605 15.297 21.642 27.685 25.404v167.538c0 37.854 30.797 68.651 68.65 68.651h242.648c37.854 0 68.651-30.796 68.651-68.651V253.251c12.372-3.765 22.443-12.8 27.662-25.399 6.988-16.868 3.308-35.365-9.601-48.274zm-18.113 36.793c-.858 2.07-4.345 8.826-13.209 8.826-9.229 0-16.737 7.509-16.737 16.738v178.858c0 21.312-17.339 38.651-38.651 38.651H123.409c-21.312 0-38.65-17.339-38.65-38.651V241.935c0-9.229-7.509-16.738-16.76-16.738-8.864 0-12.351-6.755-13.209-8.826-.857-2.07-3.168-9.313 3.1-15.58L217.392 41.288c7.536-7.536 17.432-11.302 27.33-11.302 9.896 0 19.796 3.768 27.33 11.302l159.503 159.504c6.268 6.267 3.957 13.509 3.1 15.579z"/><path d="M305.492 151.099c0-33.509-27.262-60.771-60.771-60.771s-60.771 27.262-60.771 60.771V300.94c-12.473 14.497-19.271 32.762-19.271 52.101 0 21.603 8.475 41.851 23.864 57.015 15.098 14.877 34.999 23.027 56.162 23.026.404 0 .811-.003 1.216-.009 20.597-.303 40.092-8.497 54.895-23.071 14.807-14.578 23.298-33.946 23.909-54.535.593-19.94-6.358-39.463-19.234-54.513V151.099zm-10.751 203.478c-.783 26.354-22.881 48.111-49.259 48.5-13.513.198-26.262-4.911-35.881-14.389-9.621-9.481-14.92-22.14-14.92-35.646 0-13.456 5.266-26.083 14.827-35.554a14.999 14.999 0 0 0 4.443-10.657V151.099c0-16.967 13.804-30.771 30.771-30.771s30.771 13.804 30.771 30.771v155.732a15 15 0 0 0 4.444 10.657c9.964 9.87 15.221 23.041 14.804 37.089z"/><path d="M259.722 335.925V154.329c0-8.284-6.716-15-15-15s-15 6.716-15 15v181.597c-4.757 4.172-7.765 10.291-7.765 17.116 0 12.573 10.192 22.765 22.765 22.765s22.765-10.192 22.765-22.765c0-6.826-3.008-12.944-7.765-17.117z"/></g></svg>