<svg xmlns="http://www.w3.org/2000/svg" viewBox="0 0 512 512" width="512" height="512"><path d="M494.353 46.611l-30.766-30.766c-20.064-20.064-53.872-21.231-75.366-2.6l-54.071 46.87a8.708 8.708 0 0 0-1.758 2.091l-52.635 87.676-33.796 11.265a8.684 8.684 0 0 0-3.395 14.38l92.105 92.104a8.688 8.688 0 0 0 8.136 2.311 8.684 8.684 0 0 0 6.244-5.706l11.268-33.807 88.965-53.72a8.691 8.691 0 0 0 2.085-1.761l45.76-53.029c18.527-21.468 17.28-55.251-2.776-75.308zm-10.372 63.961l-44.857 51.982-90.52 54.659a8.682 8.682 0 0 0-3.749 4.689l-7.837 23.512-20.755-20.755-.011-.013-30.703-30.701-.01-.008-20.757-20.757 23.512-7.837a8.686 8.686 0 0 0 4.699-3.768l53.578-89.243 53.026-45.964c14.753-12.79 37.949-12.002 51.708 1.759l30.767 30.766c13.766 13.764 14.622 36.948 1.909 51.679z" fill="#FFF"/><path d="M469.736 348.922c-25.496-25.495-63.021-34.357-97.02-23.335L188.164 141.035c11.021-33.999 2.159-71.525-23.335-97.021-26.86-26.858-67.071-35.26-102.445-21.396a8.685 8.685 0 0 0-2.972 14.225l55.241 55.24-36.843 36.842-55.24-55.241a8.68 8.68 0 0 0-14.225 2.972c-13.862 35.372-5.463 75.584 21.396 102.445 25.496 25.495 63.021 34.359 97.02 23.335l69.008 69.008-85.937 85.939-54.658 30.56a8.686 8.686 0 0 0-3.529 3.696l-24.561 49.122a8.685 8.685 0 0 0 1.626 10.025l30.701 30.702a8.681 8.681 0 0 0 10.025 1.626l49.122-24.561a8.686 8.686 0 0 0 3.696-3.529l30.56-54.659 85.939-85.936 72.561 72.561c-11.022 33.999-2.159 71.525 23.336 97.021 18.263 18.262 42.696 27.99 67.586 27.99a95.501 95.501 0 0 0 34.858-6.593 8.685 8.685 0 0 0 2.972-14.225l-55.241-55.241 36.842-36.841 55.24 55.24a8.68 8.68 0 0 0 14.225-2.972c13.863-35.374 5.464-75.586-21.396-102.447zM139.68 388.935a8.669 8.669 0 0 0-1.438 1.903l-29.843 53.376-41.132 20.566-21.85-21.85 20.565-41.133 53.375-29.842a8.669 8.669 0 0 0 1.903-1.438l86.789-86.79 18.421 18.421-86.79 86.787zm339.18 42.795l-51.052-51.052a8.686 8.686 0 0 0-12.281 0L366.405 429.8a8.686 8.686 0 0 0 0 12.282l51.053 51.053c-25.314 5.03-51.861-2.739-70.527-21.405-21.977-21.977-28.85-54.882-17.507-83.827a8.686 8.686 0 0 0-1.944-9.309L135.157 186.272a8.687 8.687 0 0 0-9.309-1.944c-28.944 11.344-61.849 4.469-83.827-17.506-18.667-18.668-26.437-45.216-21.404-70.528l51.052 51.053a8.686 8.686 0 0 0 12.281 0l49.122-49.122a8.685 8.685 0 0 0 0-12.281L82.02 34.891a78.17 78.17 0 0 1 70.527 21.405c21.977 21.977 28.85 54.882 17.507 83.827a8.686 8.686 0 0 0 1.944 9.309l192.321 192.32a8.687 8.687 0 0 0 9.309 1.944c28.946-11.34 61.849-4.47 83.827 17.506 18.669 18.668 26.437 45.217 21.405 70.528z" fill="#FFF"/></svg>