<svg xmlns="http://www.w3.org/2000/svg" viewBox="0 0 512 512" width="512" height="512"><g fill="#FFF"><path d="M298.662 0H179.196c-23.526 0-42.667 19.14-42.667 42.667v307.2a8.53 8.53 0 0 0 8.533 8.533h51.2c4.719 0 8.533-3.823 8.533-8.533s-3.814-8.533-8.533-8.533h-42.667v-17.067h8.533c4.719 0 8.533-3.823 8.533-8.533s-3.814-8.533-8.533-8.533h-8.533v-17.067h8.533c4.719 0 8.533-3.823 8.533-8.533s-3.814-8.533-8.533-8.533h-8.533V256h8.533c4.719 0 8.533-3.823 8.533-8.533s-3.814-8.533-8.533-8.533h-8.533v-17.067h42.667a8.53 8.53 0 0 0 8.533-8.533 8.53 8.53 0 0 0-8.533-8.533h-42.667v-17.067h8.533c4.719 0 8.533-3.823 8.533-8.533s-3.814-8.533-8.533-8.533h-8.533V153.6h8.533a8.53 8.53 0 0 0 8.533-8.533 8.53 8.53 0 0 0-8.533-8.533h-8.533v-17.067h8.533c4.719 0 8.533-3.823 8.533-8.533s-3.814-8.533-8.533-8.533h-8.533V85.333h42.667c4.719 0 8.533-3.823 8.533-8.533s-3.814-8.533-8.533-8.533h-42.667v-25.6c0-14.114 11.486-25.6 25.6-25.6h119.467c14.114 0 25.6 11.486 25.6 25.6v426.667c0 14.114-11.486 25.6-25.6 25.6H179.196c-14.114 0-25.6-11.486-25.6-25.6V384a8.53 8.53 0 0 0-8.533-8.533A8.53 8.53 0 0 0 136.53 384v85.333c0 23.526 19.14 42.667 42.667 42.667h119.467c23.526 0 42.667-19.14 42.667-42.667V42.667C341.329 19.14 322.189 0 298.662 0zM34.138 110.925v307.2c0 4.71 3.814 8.533 8.533 8.533s8.533-3.823 8.533-8.533v-307.2c0-4.71-3.814-8.533-8.533-8.533s-8.533 3.822-8.533 8.533z"/><path d="M50.3 4.71c-2.893-5.786-12.365-5.786-15.266 0L.9 72.977a8.552 8.552 0 0 0-.896 3.814v392.533c0 23.526 19.14 42.667 42.667 42.667 23.526 0 42.667-19.14 42.667-42.667v-17.067a8.53 8.53 0 0 0-8.533-8.533H42.671a8.53 8.53 0 0 0-8.533 8.533 8.53 8.53 0 0 0 8.533 8.533h25.6v8.533c0 14.114-11.486 25.6-25.6 25.6s-25.6-11.486-25.6-25.6V78.805l25.6-51.2 20.326 40.653H42.671a8.53 8.53 0 0 0-8.533 8.533 8.53 8.53 0 0 0 8.533 8.533h25.6v332.8c0 4.71 3.814 8.533 8.533 8.533s8.533-3.823 8.533-8.533V76.655a8.605 8.605 0 0 0-.973-3.831L50.3 4.71zm222.762 421.957c0-18.825-15.309-34.133-34.133-34.133s-34.133 15.309-34.133 34.133 15.309 34.133 34.133 34.133 34.133-15.309 34.133-34.133zm-51.2 0c0-9.412 7.654-17.067 17.067-17.067 9.404 0 17.067 7.654 17.067 17.067s-7.663 17.067-17.067 17.067c-9.412-.001-17.067-7.655-17.067-17.067zM435.196 409.6c-4.719 0-8.533 3.823-8.533 8.533s3.814 8.533 8.533 8.533h68.267a8.53 8.53 0 0 0 8.533-8.533v-51.2c0-23.526-19.14-42.667-42.667-42.667h-34.133c-23.526 0-42.667 19.14-42.667 42.667v102.4c0 23.526 19.14 42.667 42.667 42.667h34.133c23.526 0 42.667-19.14 42.667-42.667v-17.067a8.53 8.53 0 0 0-8.533-8.533 8.53 8.53 0 0 0-8.533 8.533v17.067c0 14.114-11.486 25.6-25.6 25.6h-34.133c-14.114 0-25.6-11.486-25.6-25.6v-102.4c0-14.114 11.486-25.6 25.6-25.6h34.133c14.114 0 25.6 11.486 25.6 25.6V409.6h-59.734z"/></g></svg>