<svg xmlns="http://www.w3.org/2000/svg" viewBox="0 0 494.898 494.898" width="512" height="512"><path d="M361.3 134.911c-14.9-14.7-34.7-22.7-55.7-22.6-21 .2-40.6 8.5-55.3 23.4-14.7 14.9-22.7 34.7-22.6 55.7 0 3.3 2.7 6 6 6s6-2.7 6-6c-.1-17.8 6.7-34.5 19.1-47.2 12.4-12.7 29.1-19.7 46.9-19.8 17.8-.1 34.5 6.7 47.2 19.1 12.7 12.4 19.7 29.1 19.8 46.9.1 17.8-6.7 34.5-19.1 47.2-12.4 12.7-29.1 19.7-46.9 19.8-3.3 0-6 2.7-6 6s2.7 6 6 6c21-.2 40.6-8.5 55.3-23.4 14.7-14.9 22.9-34.8 22.7-55.8s-8.5-40.6-23.4-55.3z" fill="#FFF"/><path d="M481.2 224.311l-18.6-7.7c2.9-17.3 2.9-34.7 0-51.9l18.6-7.7c5.3-2.1 9.6-6.3 11.8-11.8 2.3-5.5 2.3-11.5 0-17l-10.4-25.2c-2.3-5.5-6.5-9.7-12-12-5.5-2.3-11.5-2.3-17 0l-18.6 7.7c-10.1-14.2-22.4-26.5-36.7-36.7l7.7-18.6c4.7-11.3-.7-24.3-12-29l-25.1-10.4c-11.3-4.7-24.3.7-29 12l-7.7 18.6c-17.3-2.9-34.7-2.9-51.9 0l-7.7-18.6c-2.3-5.5-6.5-9.7-12-12-5.5-2.3-11.5-2.3-17 0l-25.1 10.4c-5.5 2.3-9.7 6.5-12 12-2.3 5.5-2.3 11.5 0 17l7.7 18.6c-14.2 10.1-26.5 22.4-36.7 36.7l-18.6-7.7c-5.5-2.3-11.5-2.3-17 0s-9.7 6.5-12 12l-10.5 25.1c-4.7 11.3.7 24.3 12 29l23.1 9.6c3.1 1.3 6.6-.2 7.8-3.2 1.3-3.1-.2-6.6-3.2-7.8l-23.1-9.6c-5.2-2.2-7.7-8.1-5.5-13.3l10.4-25.1c2.1-5.2 8.1-7.7 13.3-5.5l23.1 9.6c2.6 1.1 5.7.2 7.3-2.2 10.7-16 24.3-29.6 40.2-40.2 2.4-1.6 3.3-4.6 2.2-7.3l-9.6-23.1c-1-2.5-1-5.3 0-7.8s3-4.5 5.5-5.5l25.2-10.4c2.5-1 5.3-1 7.8 0s4.5 3 5.5 5.5l9.6 23.1c1.1 2.6 3.9 4.1 6.7 3.6 18.9-3.8 38-3.8 56.9 0 2.8.6 5.6-.9 6.7-3.6l9.6-23.1c2.2-5.2 8.1-7.7 13.3-5.5l25.1 10.4c5.2 2.2 7.7 8.1 5.5 13.3l-9.4 22.9c-1.1 2.6-.2 5.7 2.2 7.3 16 10.7 29.6 24.3 40.2 40.2 1.6 2.4 4.6 3.3 7.3 2.2l23.1-9.6c2.5-1 5.3-1 7.8 0s4.5 3 5.5 5.5l10.4 25.2c1 2.5 1 5.3 0 7.8s-3 4.5-5.5 5.5l-23.1 9.6c-2.6 1.1-4.1 3.9-3.6 6.7 3.8 18.9 3.7 38 0 56.9-.6 2.8.9 5.6 3.6 6.7l23.1 9.6c5.2 2.2 7.7 8.1 5.5 13.3l-10.4 25.1c-2.2 5.2-8.1 7.7-13.3 5.5l-23.1-9.6c-2.6-1.1-5.7-.2-7.3 2.2-10.7 16-24.3 29.6-40.2 40.2-2.4 1.6-3.3 4.6-2.2 7.3l9.6 23.1c1 2.5 1 5.3 0 7.8s-3 4.5-5.5 5.5l-25.2 10.4c-2.5 1-5.3 1-7.8 0s-4.5-3-5.5-5.5l-9.6-23.1c-1.3-3.1-4.8-4.5-7.8-3.2-3.1 1.3-4.5 4.8-3.2 7.8l9.6 23.1c2.3 5.5 6.5 9.7 12 12 2.7 1.1 5.6 1.7 8.5 1.7 2.9 0 5.8-.6 8.5-1.7l25.2-10.4c5.5-2.3 9.7-6.5 12-12s2.3-11.5 0-17l-7.7-18.6c14.2-10.1 26.5-22.4 36.7-36.7l18.6 7.7c5.5 2.3 11.5 2.3 17 0s9.7-6.5 12-12l10.4-25.1c4.7-11.3-.7-24.3-12-29zm-336.6 67.4c-31 0-56.2 25.3-56.2 56.3s25.2 56.1 56.2 56.1 56.2-25.2 56.2-56.2-25.2-56.2-56.2-56.2zm0 100.5c-24.4 0-44.2-19.8-44.2-44.2 0-24.4 19.8-44.2 44.2-44.2 24.4 0 44.2 19.8 44.2 44.2s-19.8 44.2-44.2 44.2z" fill="#FFF"/><path d="M271.4 320.111h-13.3c-2.8-11.7-7.4-22.7-13.7-33l9.4-9.4c3.4-3.4 5.2-7.8 5.2-12.6 0-4.7-1.8-9.2-5.2-12.6l-14-14c-3.4-3.4-7.8-5.2-12.6-5.2s-9.2 1.8-12.6 5.2l-9.4 9.4c-10.3-6.3-21.3-10.8-33-13.7v-13.3c0-9.8-8-17.8-17.8-17.8h-19.8c-9.8 0-17.8 8-17.8 17.8v13.3c-11.7 2.8-22.7 7.4-33 13.7l-9.4-9.4c-3.4-3.4-7.8-5.2-12.6-5.2-4.7 0-9.2 1.8-12.6 5.2l-14 14c-3.4 3.4-5.2 7.8-5.2 12.6 0 4.7 1.8 9.2 5.2 12.6l9.4 9.4c-6.3 10.3-10.8 21.3-13.7 33H17.8c-9.8 0-17.8 8-17.8 17.8v19.8c.1 10 8 17.9 17.8 17.9h13.3c2.8 11.7 7.4 22.7 13.7 33l-9.4 9.4c-3.4 3.4-5.2 7.8-5.2 12.6 0 4.7 1.8 9.2 5.2 12.6l14 14c3.4 3.4 7.8 5.2 12.6 5.2 4.7 0 9.2-1.8 12.6-5.2l9.4-9.4c10.3 6.3 21.3 10.8 33 13.7v13.3c0 9.8 8 17.8 17.8 17.8h19.8c9.8 0 17.8-8 17.8-17.8v-13.4c11.7-2.8 22.7-7.4 33-13.7l9.4 9.4c3.4 3.4 7.8 5.2 12.6 5.2s9.2-1.8 12.6-5.2l14-14c3.4-3.4 5.2-7.8 5.2-12.6 0-4.7-1.8-9.2-5.2-12.6l-9.4-9.4c6.3-10.3 10.8-21.3 13.7-33h13.1c9.8 0 17.8-8 17.8-17.8v-19.8c0-9.8-8-17.8-17.8-17.8zm5.8 37.8c0 3.2-2.6 5.8-5.8 5.8h-18.2c-2.9 0-5.3 2-5.9 4.8-2.7 13.5-7.9 26.2-15.6 37.6-1.6 2.4-1.3 5.6.7 7.6l12.9 12.9c1.1 1.1 1.7 2.5 1.7 4.1 0 1.5-.6 3-1.7 4.1l-14 14c-1.1 1.1-2.5 1.7-4.1 1.7-1.6 0-3-.6-4.1-1.7l-12.9-12.9c-2-2-5.2-2.3-7.6-.7-11.5 7.7-24.1 12.9-37.6 15.6-2.8.6-4.8 3-4.8 5.9v18.2c0 3.2-2.6 5.8-5.8 5.8h-19.8c-3.2 0-5.8-2.6-5.8-5.8v-18.2c0-2.9-2-5.3-4.8-5.9-13.5-2.7-26.2-7.9-37.6-15.6-1-.7-2.2-1-3.3-1-1.5 0-3.1.6-4.2 1.8l-12.9 12.9c-1.1 1.1-2.5 1.7-4.1 1.7-1.5 0-3-.6-4.1-1.7l-14-14c-1.1-1.1-1.7-2.5-1.7-4.1 0-1.5.6-3 1.7-4.1l12.9-12.9c2-2 2.3-5.2.7-7.6-7.7-11.5-12.9-24.1-15.6-37.6-.6-2.8-3-4.8-5.9-4.8H17.8c-3.2 0-5.8-2.6-5.8-5.8v-19.9h.1c0-3.2 2.6-5.8 5.8-5.8h18.2c2.9 0 5.3-2 5.9-4.8 2.7-13.5 7.9-26.2 15.6-37.6 1.6-2.4 1.3-5.6-.7-7.6l-13-12.9c-1.1-1.1-1.7-2.5-1.7-4.1 0-1.5.6-3 1.7-4.1l14-14c1.1-1.1 2.5-1.7 4.1-1.7 1.5 0 3 .6 4.1 1.7l12.9 12.9c2 2 5.2 2.3 7.6.7 11.5-7.7 24.1-12.9 37.6-15.6 2.8-.6 4.8-3 4.8-5.9v-18.2c0-3.2 2.6-5.8 5.8-5.8h19.8c3.2 0 5.8 2.6 5.8 5.8v18.3c0 2.9 2 5.3 4.8 5.9 13.5 2.7 26.2 7.9 37.6 15.6 2.4 1.6 5.6 1.3 7.6-.7l12.9-12.9c1.1-1.1 2.5-1.7 4.1-1.7 1.6 0 3 .6 4.1 1.7l14 14c1.1 1.1 1.7 2.5 1.7 4.1 0 1.5-.6 3-1.7 4.1l-13.1 12.8c-2 2-2.3 5.2-.7 7.6 7.7 11.5 12.9 24.1 15.6 37.6.6 2.8 3 4.8 5.9 4.8h18.2c3.2 0 5.8 2.6 5.8 5.8v19.8z" fill="#FFF"/></svg>