<svg xmlns="http://www.w3.org/2000/svg" width="512" height="512" viewBox="0 0 700.236 700.236"><path d="M645.527 495.815l-75.609-43.689 63.832-38.015c10.262-4.944 13.438-18.724 7.602-28.855-5.941-10.375-18.764-12.563-28.498-6.89l-85.107 49.849-135.259-78.705 135.258-77.894 85.107 49.768c2.658 1.945 6.078 3.08 9.881 3.08 7.213 0 13.674-3.404 18.617-9.889 5.699-10.294 2.66-23.911-7.602-28.855l-63.832-38.015 75.609-43.688c9.855-5.674 13.244-18.4 7.602-28.856-5.389-10.051-18.723-13.536-28.879-7.619l-75.99 44.094-1.135-76.03c-.178-11.753-9.119-21.237-20.896-21.237-11.775 0-20.984 10.213-20.895 21.237l.754 100.346-134.496 77.894V155.788l84.727-48.309c9.891-5.593 14.201-18.643 8.357-28.855-5.934-10.375-18.115-13.456-28.498-7.619l-64.586 36.475V21.236c0-11.753-9.5-21.236-21.277-21.236-11.777 0-20.896 9.483-20.896 21.236v87.053l-66.871-37.285c-10.416-5.755-22.274-2.513-28.118 7.619-5.933 10.375-2.245 23.101 7.976 28.855l87.013 49.039v156.518l-137.542-79.353.762-98.077c1.143-11.023-8.738-21.237-20.515-21.237h-.762c-11.016 0-20.774 9.484-20.896 21.237l-.762 73.76-74.084-42.554c-10.343-5.998-23.109-2.432-28.499 7.538-5.642 10.537-2.724 22.939 7.603 28.937l74.846 43.283-65.354 39.15C53.96 290.664 50.758 304.443 57 314.575c4.02 6.566 9.873 9.889 17.856 9.889 4.174 0 7.651-1.054 11.015-3.08l85.489-50.498 137.162 78.624-137.162 79.434-85.489-50.578c-10.262-5.998-23.49-3.161-28.872 6.89-5.642 10.456-2.578 23.02 7.214 28.855l65.355 38.744-74.847 43.689c-10.302 5.998-13.642 18.643-7.603 28.937C51.342 532.614 57 536.1 64.976 536.1c1.897 0 5.698-1.135 10.643-3.08l74.084-42.554.762 73.76c.122 11.753 9.88 20.831 20.896 20.831h.762c11.777 0 20.604-9.808 20.515-21.642l-.762-97.996 137.542-78.623v155.707l-87.013 49.038c-10.383 5.836-14.015 18.562-7.976 28.856 4.223 7.214 9.881 10.699 17.856 10.699 3.802 0 7.303-.648 10.262-2.351l66.871-37.935v88.513c0 11.753 9.119 20.912 20.896 20.912 11.777 0 21.277-9.159 21.277-20.912v-87.054l64.586 36.476c2.957 1.702 6.459 2.351 9.881 2.351 8.355 0 14.516-3.404 18.617-10.699 5.771-10.213 2.043-23.021-8.357-28.856l-84.727-47.498V385.985l134.496 77.894-.754 99.536c-.098 11.834 9.119 21.642 20.896 21.642s20.717-9.078 20.895-20.831l1.135-76.435 75.99 44.499c2.934 1.702 6.84 2.27 11.023 2.27 7.977 0 13.828-3.323 17.855-9.889 6.236-10.132 2.255-23.182-7.6-28.856z" fill="#FFF"/></svg>